<?xml version="1.0" encoding="UTF-8" standalone="no"?>
<svg
   width="652.53101"
   height="331.19199"
   viewBox="0 0 652.531 331.192"
   version="1.1"
   id="svg12"
   sodipodi:docname="SPAZIO LOGO.svg"
   inkscape:version="1.2.1 (9c6d41e4, 2022-07-14)"
   xmlns:inkscape="http://www.inkscape.org/namespaces/inkscape"
   xmlns:sodipodi="http://sodipodi.sourceforge.net/DTD/sodipodi-0.dtd"
   xmlns="http://www.w3.org/2000/svg"
   xmlns:svg="http://www.w3.org/2000/svg">
  <sodipodi:namedview
     id="namedview14"
     pagecolor="#ffffff"
     bordercolor="#000000"
     borderopacity="0.25"
     inkscape:showpageshadow="2"
     inkscape:pageopacity="0.0"
     inkscape:pagecheckerboard="0"
     inkscape:deskcolor="#d1d1d1"
     showgrid="false"
     inkscape:zoom="0.71257763"
     inkscape:cx="344.52387"
     inkscape:cy="166.29767"
     inkscape:window-width="1629"
     inkscape:window-height="997"
     inkscape:window-x="51"
     inkscape:window-y="25"
     inkscape:window-maximized="0"
     inkscape:current-layer="svg12" />
  <defs
     id="defs4">
    <clipPath
       id="clip-path">
      <rect
         id="Rettangolo_32"
         data-name="Rettangolo 32"
         width="682.03003"
         height="258.56"
         fill="#ffffff"
         stroke="rgba(0,0,0,0)"
         stroke-miterlimit="10"
         stroke-width="1"
         x="0"
         y="0" />
    </clipPath>
  </defs>
  <g
     id="Raggruppa_51"
     data-name="Raggruppa 51"
     transform="translate(-1278.5,-410.219)">
    <g
       id="Raggruppa_43"
       data-name="Raggruppa 43"
       transform="translate(1080,-24.281)">
      <path
         id="Sottrazione_6"
         data-name="Sottrazione 6"
         d="M -3517.97,3862.562 H -4170 V 3604 h 652.031 v 56 h -22 v -34 H -4148 v 214.56 h 608.031 v -91.28 h 22 v 113.281 z"
         transform="translate(4369,-3169)"
         fill="#ffffff"
         stroke="rgba(0,0,0,0)"
         stroke-miterlimit="10"
         stroke-width="1" />
      <g
         id="Raggruppa_36"
         data-name="Raggruppa 36"
         transform="translate(199,435)"
         clip-path="url(#clip-path)">
        <path
           id="Tracciato_10"
           data-name="Tracciato 10"
           d="m 136.808,59.737 -19.44,1.2 a 11.068,11.068 0 0 0 -4.038,-6.33 q -3.24,-2.642 -8.773,-2.642 a 15.837,15.837 0 0 0 -8.349,2.069 6.119,6.119 0 0 0 -3.363,5.508 5.724,5.724 0 0 0 2.168,4.636 q 2.218,1.894 7.552,3.04 l 13.857,2.791 q 22.078,4.532 22.131,20.736 a 20.928,20.928 0 0 1 -4.411,13.209 28.788,28.788 0 0 1 -12.087,8.846 45.843,45.843 0 0 1 -17.6,3.166 q -15.206,0 -24.224,-6.355 A 24.364,24.364 0 0 1 69.72,92.285 l 20.885,-1.1 a 10.781,10.781 0 0 0 4.611,7.078 16.533,16.533 0 0 0 9.3,2.393 16.432,16.432 0 0 0 9,-2.193 q 3.415,-2.193 3.465,-5.582 -0.146,-5.683 -9.82,-7.626 L 93.9,82.615 Q 71.66,78.18 71.76,60.734 a 20.21,20.21 0 0 1 8.846,-17.446 q 8.9,-6.381 23.6,-6.38 14.5,0 22.854,6.131 a 23.707,23.707 0 0 1 9.747,16.7 m 6.731,83.44 V 37.9 h 20.934 v 12.86 h 0.95 a 29.08,29.08 0 0 1 4.087,-6.33 21.2,21.2 0 0 1 6.978,-5.359 23.823,23.823 0 0 1 10.717,-2.168 28.738,28.738 0 0 1 15.452,4.362 30.744,30.744 0 0 1 11.29,13.109 q 4.261,8.748 4.262,21.907 0,12.81 -4.137,21.608 a 30.913,30.913 0 0 1 -11.165,13.311 28.544,28.544 0 0 1 -15.753,4.511 24.364,24.364 0 0 1 -10.492,-2.047 21.229,21.229 0 0 1 -7.028,-5.159 27.31,27.31 0 0 1 -4.212,-6.305 h -0.648 v 40.98 z m 20.788,-66.992 q 0,10.218 4.212,16.424 a 14.5,14.5 0 0 0 23.851,-0.1 q 4.141,-6.305 4.137,-16.325 0,-9.969 -4.112,-16.175 -4.112,-6.206 -11.989,-6.206 a 13.633,13.633 0 0 0 -11.916,6.056 q -4.19,6.056 -4.182,16.325 m 81.4,39.727 q -10.966,0 -18.193,-5.732 -7.227,-5.732 -7.227,-17.1 0,-8.573 4.038,-13.458 a 23.27,23.27 0 0 1 10.592,-7.153 59.892,59.892 0 0 1 14.131,-2.966 108.158,108.158 0 0 0 14.256,-2.094 q 4.287,-1.1 4.287,-4.785 v -0.3 A 9.212,9.212 0 0 0 264.64,55 q -2.966,-2.592 -8.4,-2.592 -5.732,0 -9.121,2.492 a 11.692,11.692 0 0 0 -4.486,6.33 l -19.639,-1.6 a 26.187,26.187 0 0 1 10.893,-16.6 q 8.7,-6.131 22.455,-6.131 a 46.451,46.451 0 0 1 15.95,2.692 26.54,26.54 0 0 1 11.987,8.409 q 4.561,5.708 4.561,14.829 v 51.639 H 268.7 V 103.85 h -0.6 a 22.047,22.047 0 0 1 -8.349,8.7 q -5.559,3.363 -14.032,3.363 m 6.081,-14.654 a 16.426,16.426 0 0 0 11.469,-4.059 13.064,13.064 0 0 0 4.485,-10.1 v -8.122 a 12.426,12.426 0 0 1 -3.862,1.5 q -2.618,0.648 -5.582,1.121 -2.964,0.473 -5.31,0.818 a 21.037,21.037 0 0 0 -9,3.144 7.762,7.762 0 0 0 -3.414,6.829 7.6,7.6 0 0 0 3.165,6.629 13.593,13.593 0 0 0 8.046,2.24 z m 44.713,13.209 V 101.807 L 334,55.4 V 54.852 H 297.813 V 37.9 h 61.758 v 13.809 l -35.19,45.263 v 0.548 h 36.487 v 16.947 z m 72.229,-76.562 h 21.238 v 76.562 h -21.234 z m 64.358,78.056 q -11.614,0 -20.063,-4.96 A 33.521,33.521 0 0 1 400,97.146 44.5,44.5 0 0 1 395.415,76.485 44.727,44.727 0 0 1 400,55.723 33.52,33.52 0 0 1 413.033,41.868 q 8.449,-4.96 20.063,-4.96 11.614,0 20.063,4.96 a 33.521,33.521 0 0 1 13.035,13.857 44.718,44.718 0 0 1 4.586,20.762 44.486,44.486 0 0 1 -4.586,20.661 33.521,33.521 0 0 1 -13.035,13.857 q -8.448,4.958 -20.062,4.957 z m 0.1,-16.449 a 13.17,13.17 0 0 0 11.938,-6.58 q 4.063,-6.58 4.062,-16.6 -10e-4,-10.02 -4.062,-16.624 a 13.15,13.15 0 0 0 -11.938,-6.6 13.344,13.344 0 0 0 -12.112,6.6 Q 417,66.32 417,76.339 q 0,10.019 4.087,16.6 a 13.356,13.356 0 0 0 12.111,6.58 z m 55.428,16.25 a 11.645,11.645 0 0 1 -8.473,-3.489 11.284,11.284 0 0 1 -3.489,-8.474 11.169,11.169 0 0 1 3.489,-8.374 11.882,11.882 0 0 1 16.822,0 11.913,11.913 0 0 1 -8.349,20.337"
           transform="translate(150.505,-6.419)"
           fill="#ffffff"
           stroke="rgba(0,0,0,0)"
           stroke-miterlimit="10"
           stroke-width="1" />
      </g>
    </g>
    <path
       id="Tracciato_56"
       data-name="Tracciato 56"
       d="M 12.585,38 H 7.926 L 18.395,8.909 h 5.071 L 33.934,38 H 29.275 L 26.619,30.3 H 15.255 Z m 3.949,-11.392 h 8.807 L 21.051,14.193 H 20.824 Z M 76.129,21.622 V 25.3 h -40 V 21.622 Z M 80.525,38 V 8.909 h 10.369 a 12.049,12.049 0 0 1 5.606,1.165 7.8,7.8 0 0 1 3.345,3.217 9.767,9.767 0 0 1 1.115,4.737 9.4,9.4 0 0 1 -1.328,5.064 7.671,7.671 0 0 1 -4.013,3.132 L 102.073,38 h -5 L 91.164,26.991 h -6.25 V 38 Z m 4.389,-14.787 h 5.568 q 3.21,0 4.638,-1.364 a 5.033,5.033 0 0 0 1.428,-3.821 5.3,5.3 0 0 0 -1.435,-3.913 q -1.435,-1.442 -4.687,-1.442 h -5.512 z m 59.41,-1.591 V 25.3 h -40 v -3.678 z m 2.961,-8.935 V 8.909 H 169.8 v 3.778 h -9.077 V 38 h -4.375 V 12.688 Z m 65.476,8.935 V 25.3 h -40 v -3.678 z m 12.521,16.79 a 11.115,11.115 0 0 1 -5.036,-1.058 7.655,7.655 0 0 1 -4.382,-7.081 6.5,6.5 0 0 1 1.548,-4.4 21.221,21.221 0 0 1 4.034,-3.516 22.4,22.4 0 0 1 -2.287,-3.31 7.237,7.237 0 0 1 -0.909,-3.58 6.868,6.868 0 0 1 0.916,-3.565 6.437,6.437 0 0 1 2.564,-2.429 8.079,8.079 0 0 1 3.864,-0.881 7.986,7.986 0 0 1 3.857,0.874 6.389,6.389 0 0 1 2.486,2.315 5.959,5.959 0 0 1 0.874,3.146 6.593,6.593 0 0 1 -1.023,3.658 11.042,11.042 0 0 1 -2.841,2.9 l -1.989,1.463 5.824,6.96 a 10.784,10.784 0 0 0 0.888,-2.379 11.362,11.362 0 0 0 0.32,-2.749 h 3.835 a 14.553,14.553 0 0 1 -0.746,5.028 13.01,13.01 0 0 1 -1.669,3.239 L 239.543,38 h -4.8 l -1.96,-2.3 a 9.349,9.349 0 0 1 -3.509,2.045 12.736,12.736 0 0 1 -3.992,0.667 z m 5.114,-5.526 -6.52,-7.656 -0.767,0.568 a 7.964,7.964 0 0 0 -2.365,2.472 4.448,4.448 0 0 0 -0.661,1.889 4.412,4.412 0 0 0 1.428,3.274 5.205,5.205 0 0 0 3.786,1.385 7.817,7.817 0 0 0 5.103,-1.932 z m -5.781,-12.756 1.79,-1.264 a 7.649,7.649 0 0 0 1.854,-1.655 3.438,3.438 0 0 0 0.675,-2.166 2.848,2.848 0 0 0 -0.881,-1.96 3.081,3.081 0 0 0 -2.358,-0.937 3.176,3.176 0 0 0 -2.486,1.065 3.427,3.427 0 0 0 -0.952,2.33 4.306,4.306 0 0 0 0.682,2.237 20.735,20.735 0 0 0 1.675,2.351 z M 281.2,21.622 V 25.3 h -40 V 21.622 Z M 285.594,38 V 8.909 h 10.369 a 11.51,11.51 0 0 1 5.618,1.236 8.042,8.042 0 0 1 3.345,3.366 10.282,10.282 0 0 1 1.108,4.815 10.27,10.27 0 0 1 -1.115,4.822 8.119,8.119 0 0 1 -3.352,3.381 11.456,11.456 0 0 1 -5.618,1.243 h -5.966 V 38 Z m 4.389,-13.949 h 5.568 q 3.224,0 4.645,-1.626 a 6,6 0 0 0 1.42,-4.1 5.853,5.853 0 0 0 -1.428,-4.063 q -1.428,-1.591 -4.695,-1.591 h -5.511 z m 59.183,-2.429 V 25.3 h -40 V 21.622 Z M 353.562,38 V 8.909 H 371.8 v 3.778 h -13.849 v 8.864 h 12.9 v 3.764 h -12.9 v 8.906 h 14.02 V 38 Z M 415.685,21.622 V 25.3 h -40 v -3.678 z m 29.666,1.832 a 17.453,17.453 0 0 1 -1.7,8 12.46,12.46 0 0 1 -4.666,5.149 13.513,13.513 0 0 1 -13.466,0 12.46,12.46 0 0 1 -4.666,-5.149 17.453,17.453 0 0 1 -1.7,-8 17.442,17.442 0 0 1 1.7,-8 12.469,12.469 0 0 1 4.666,-5.142 13.513,13.513 0 0 1 13.466,0 12.469,12.469 0 0 1 4.666,5.142 17.442,17.442 0 0 1 1.7,8.001 z m -4.347,0 a 14.039,14.039 0 0 0 -1.143,-5.987 8.515,8.515 0 0 0 -3.125,-3.693 8.617,8.617 0 0 0 -8.963,0 8.515,8.515 0 0 0 -3.125,3.693 14.039,14.039 0 0 0 -1.143,5.987 14.05,14.05 0 0 0 1.143,5.98 8.509,8.509 0 0 0 3.125,3.7 8.617,8.617 0 0 0 8.963,0 8.509,8.509 0 0 0 3.125,-3.7 14.05,14.05 0 0 0 1.139,-5.979 z m 47.805,-1.832 V 25.3 h -40 V 21.622 Z M 493.206,38 V 8.909 h 10.369 a 11.51,11.51 0 0 1 5.618,1.236 8.042,8.042 0 0 1 3.345,3.366 10.281,10.281 0 0 1 1.108,4.815 10.271,10.271 0 0 1 -1.115,4.822 8.119,8.119 0 0 1 -3.352,3.381 11.456,11.456 0 0 1 -5.618,1.243 H 497.6 V 38 Z M 497.6,24.051 h 5.568 q 3.224,0 4.645,-1.626 a 6,6 0 0 0 1.42,-4.1 5.853,5.853 0 0 0 -1.428,-4.063 q -1.428,-1.591 -4.695,-1.591 h -5.51 z m 59.183,-2.429 V 25.3 h -40 V 21.622 Z M 561.174,38 V 8.909 h 4.389 v 25.313 h 13.182 V 38 Z M 621.749,21.622 V 25.3 h -40 V 21.622 Z M 626.145,38 V 8.909 h 18.239 v 3.778 h -13.85 v 8.864 h 12.9 v 3.764 h -12.9 v 8.906 h 14.02 V 38 Z"
       transform="translate(1279,703)"
       fill="#f7f7f7" />
  </g>
</svg>
